<svg id="Capa_1" enable-background="new 0 0 512 512" height="512" viewBox="0 0 512 512" width="512" xmlns="http://www.w3.org/2000/svg"><g><g><path clip-rule="evenodd" d="m237.38 7.926c-29.677 44.589-100.536 140.872-100.536 196 0 71.537 54.715 107.32 109.431 107.32 54.745 0 109.46-35.783 109.46-107.32 0-55.128-70.86-151.41-100.536-196-7.047-10.568-10.774-10.568-17.819 0z" fill="#ff8086" fill-rule="evenodd"/></g><g><path clip-rule="evenodd" d="m242.928 169.992c-11.184-10.069-28.121-12.799-38.571-1.937-11.536 11.947-11.536 31.497 0 43.445l4.667 4.638 34.314 34.022c1.468 1.145 2.202 1.791 2.935 1.82.763-.029 1.497-.675 2.965-1.82l34.314-34.022 4.667-4.638c11.536-11.947 11.536-31.497 0-43.445-10.45-10.861-27.387-8.131-38.571 1.937-2.084 1.879-2.818 2.789-3.376 2.789-.527-.001-1.26-.911-3.344-2.789z" fill="#ffcccf" fill-rule="evenodd"/></g><g><path clip-rule="evenodd" d="m355.734 203.926c0-55.128-70.86-151.41-100.536-196-7.045-10.568-10.773-10.568-17.818 0-2.495 3.757-5.313 7.896-8.307 12.329 33.346 48.934 88.589 129.659 88.589 178.328 0 70.656-53.394 106.439-107.435 107.32 11.624 3.552 23.835 5.342 36.046 5.342 54.745.001 109.461-35.783 109.461-107.319z" fill="#e5646e" fill-rule="evenodd"/></g><g><path clip-rule="evenodd" d="m288.22 211.499c11.536-11.947 11.536-31.497 0-43.445-6.927-7.192-16.732-8.425-25.802-5.489 8.278 11.977 7.25 28.855-3.141 39.599l-4.667 4.638-27.504 27.27 16.233 16.086c1.468 1.145 2.202 1.791 2.935 1.82.763-.029 1.497-.675 2.965-1.82l34.314-34.022z" fill="#e7b1b9" fill-rule="evenodd"/></g><g><path clip-rule="evenodd" d="m319.071 444.163 79.813-11.067 41.653-34.139c3.082-1.174 6.194-2.29 9.276-3.464 10.01-3.523 15.323-14.619 11.771-24.628-3.552-10.01-14.647-15.323-25.097-11.595l-46.32 17.26-83.893 31.292c-2.819 16.233.468 36.341 12.797 36.341z" fill="#f1d0a5" fill-rule="evenodd"/></g><g><path clip-rule="evenodd" d="m249.444 388.242 39.334-4.814 12.593-14.56c8.982-3.523 13.679-13.679 10.421-22.838-3.317-9.364-13.679-14.325-23.454-10.832l-92.875 34.433 9.129 17.759z" fill="#f1d0a5" fill-rule="evenodd"/></g><g><path clip-rule="evenodd" d="m306.273 407.822 54.774-11.654 29.119-19.638c7.485-4.697 11.008-14.149 7.955-22.808-3.552-10.01-14.647-15.294-25.068-11.595l-71.682 26.742c-.176.059-.382.147-.558.206l-51.369 19.168 15.528 22.045z" fill="#f1d0a5" fill-rule="evenodd"/></g><g><path clip-rule="evenodd" d="m249.444 388.242 51.369-19.168.558-.206c8.982-3.523 13.679-13.679 10.421-22.838-1.497-4.227-4.403-7.515-8.043-9.599.616 7.779-3.875 15.323-11.419 18.288l-.558.205-63.844 25.891z" fill="#e5c093" fill-rule="evenodd"/></g><g><path clip-rule="evenodd" d="m306.273 407.822 83.893-31.292c7.485-4.697 11.008-14.149 7.955-22.808-2.789-7.838-10.186-12.769-18.258-12.769.704 1.145 1.321 2.378 1.761 3.699 3.082 8.66.998 12.3-6.458 17.026l-97.307 36.341z" fill="#e5c093" fill-rule="evenodd"/></g><g><path clip-rule="evenodd" d="m319.071 444.163c40.684-15.147 81.368-30.646 122.141-45.47l8.601-3.2c10.01-3.523 15.323-14.619 11.771-24.628-2.084-5.842-6.722-10.098-12.299-11.859 2.818 9.716-2.789 17.759-12.446 21.194-38.453 14.296-76.965 29.384-115.419 43.679.147.528.294 1.057.411 1.614.939 4.374.822 8.806-.352 12.916-.559 1.996-1.351 3.934-2.408 5.754z" fill="#e5c093" fill-rule="evenodd"/></g><g><path clip-rule="evenodd" d="m177.645 493.772 48.551 14.501c17.201 5.137 46.438 4.902 63.257-.323 24.951-7.72 64.754-22.926 79.431-28.885l96.808-39.423c12.152-4.932 14.677-21.722 7.779-32.906-6.81-10.979-20.137-12.417-32.26-8.043l-.675.264-121.466 45.206c7.456-12.799 2.29-31.703-12.798-36.341l-110.81-38.19c-27.328-9.423-35.753-22.28-91.349-1.468l-33.463 59.502 33.463 54.159c29.296.469 42.887 2.788 73.532 11.947z" fill="#ffe4c1" fill-rule="evenodd"/></g><g><path clip-rule="evenodd" d="m104.114 481.824c29.295.47 42.886 2.789 73.531 11.947l48.551 14.501c17.201 5.137 46.438 4.873 63.257-.323 24.951-7.72 64.754-22.926 79.431-28.885l96.808-39.423c12.152-4.932 14.677-21.722 7.779-32.906-.117-.147-.205-.294-.294-.44-1.849 2.554-4.344 4.609-7.485 5.871l-96.808 39.423c-14.677 5.959-54.48 21.165-79.431 28.885-16.82 5.225-46.056 5.46-63.257.323l-48.551-14.501c-30.645-9.159-44.236-11.478-73.531-11.947v2.847 18.552z" fill="#f1d0a5" fill-rule="evenodd"/></g><g><path clip-rule="evenodd" d="m104.114 475.748v-105.97-8.924c0-7.397-6.076-13.503-13.503-13.503h-42.357c-7.426 0-13.503 6.076-13.503 13.503v123.817c0 7.427 6.076 13.503 13.503 13.503h42.357c7.397 0 13.503-6.106 13.503-13.503z" fill="#eceaed" fill-rule="evenodd"/></g><g><path clip-rule="evenodd" d="m48.254 498.175h42.357c7.397 0 13.503-6.106 13.503-13.503v-2.847-6.076-18.552-2.847c0 7.427-6.106 13.503-13.503 13.503h-42.357c-7.426 0-13.503-6.047-13.503-13.474v30.294c0 7.426 6.076 13.502 13.503 13.502z" fill="#dad8db" fill-rule="evenodd"/></g><g><path d="m295.014 464.016c-5.886 0-12.813-1.04-20.9-3.711l-68.273-22.514c-6.158-2.025-3.926-13.357 3.567-10.816l68.451 20.638c7.389 2.547 41.213 11.529 44.537-17.965.354-3.137 6.758-6.722 6.948-5.931 2.838 11.778-1.028 23.954-9.537 31.647-4.15 3.753-12.018 8.652-24.793 8.652z" fill="#e5c093"/></g></g></svg>