<?xml version="1.0"?>
<svg xmlns="http://www.w3.org/2000/svg" id="Capa_1" enable-background="new 0 0 512 512" height="512px" viewBox="0 0 512 512" width="512px" class=""><g><g><g><path d="m256 90h-90v-90h90z" fill="#e1ebf0" data-original="#E1EBF0" class="" style="fill:#FFF5F5" data-old_color="#e1ebf0"/></g><path d="m211 0h45v90h-45z" fill="#b4d2d7" data-original="#B4D2D7" class="" style="fill:#FFF5F5" data-old_color="#b4d2d7"/><g id="Hand_Sanitizer_4_"><g><path d="m286 169.75-20.684-8.467c-33.281-13.652-75.352-13.652-108.633 0l-20.683 8.467v-109.75h150z" fill="#ff415b" data-original="#FF415B" class="" style="fill:#FF415B"/></g><g><path d="m421 211c-24.814 0-45-20.186-45-45 0-25.038 37.65-75.416 45-86.396 8.688 12.978 45 61.652 45 86.396 0 24.814-20.186 45-45 45z" fill="#5ecef4" data-original="#5ECEF4" class=""/></g></g><g><path d="m414.291 58.418-56.836-28.418h-236.455v-30h243.545l63.164 31.582z" fill="#fff5f5" data-original="#FFF5F5" class="" style="fill:#FFF5F5"/></g><path d="m211 0v30h146.455l56.836 28.418 13.418-26.836-63.164-31.582z" fill="#e1ebf0" data-original="#E1EBF0" class="" style="fill:#FFF5F5" data-old_color="#e1ebf0"/><path d="m211 151.044c18.838 0 37.676 3.413 54.316 10.239l20.684 8.467v-109.75h-75z" fill="#e50058" data-original="#E50058" class="active-path" style="fill:#FF415B" data-old_color="#e50058"/><g><g><path d="m342.719 512h-263.438l-2.842-12.367c-1.23-4.966-30.439-122.827-30.439-213.633 0-68.979 38.057-127.412 99.316-152.49 40.547-16.611 90.82-16.611 131.367 0 61.26 25.078 99.317 83.511 99.317 152.49 0 90.806-29.209 208.667-30.439 213.633zm-11.719-16h.293z" fill="#fff5f5" data-original="#FFF5F5" class="" style="fill:#FFF5F5"/></g></g><path d="m342.719 512 2.842-12.367c1.23-4.966 30.439-122.827 30.439-213.633 0-68.979-38.057-127.412-99.316-152.49-20.273-8.306-42.979-12.458-65.684-12.458v390.948z" fill="#e1ebf0" data-original="#E1EBF0" class="" style="fill:#FFF5F5" data-old_color="#e1ebf0"/><g><path d="m211 421c-57.891 0-105-47.109-105-105s47.109-105 105-105 105 47.109 105 105-47.109 105-105 105z" fill="#ff415b" data-original="#FF415B" class="" style="fill:#FF415B"/></g><path d="m316 316c0-57.891-47.109-105-105-105v210c57.891 0 105-47.109 105-105z" fill="#e50058" data-original="#E50058" class="active-path" style="fill:#FF415B" data-old_color="#e50058"/><path d="m256 301h-30v-30h-30v30h-30v30h30v30h30v-30h30z" fill="#fff5f5" data-original="#FFF5F5" class="" style="fill:#FFF5F5"/><path d="m226 271h-15v90h15v-30h30v-30h-30z" fill="#e1ebf0" data-original="#E1EBF0" class="" style="fill:#FFF5F5" data-old_color="#e1ebf0"/></g></g> </svg>
