<svg id="Capa_1" enable-background="new 0 0 512 512" height="512" viewBox="0 0 512 512" width="512" xmlns="http://www.w3.org/2000/svg"><g><g><path d="m408.589 393.665h-305.178c-15.08 0-27.305-12.225-27.305-27.305v-200.801c0-13.347 9.648-24.737 22.813-26.933l86.592-14.441c46.67-7.783 94.307-7.783 140.977 0l86.592 14.441c13.165 2.195 22.813 13.586 22.813 26.933v200.801c.001 15.08-12.224 27.305-27.304 27.305z" fill="#99ebfa"/><path d="m210.794 349.665h-90.688v-163.234l49.404-10.906c56.974-12.578 116.005-12.578 172.979 0l49.404 10.906v163.234h-90.687" fill="#ccf5fc"/></g><g><path d="m446.187 199.409h-.293v-33.851c0-18.31-13.108-33.785-31.168-36.796l-86.592-14.44c-47.864-7.982-96.402-7.982-144.267 0l-86.592 14.44c-18.06 3.012-31.168 18.487-31.168 36.796v33.851h-.293c-36.291 0-65.814 29.524-65.814 65.813 0 22.885 12.163 44.461 31.742 56.308l34.364 20.793v24.037c0 20.57 16.735 37.305 37.305 37.305h305.178c20.57 0 37.305-16.735 37.305-37.305v-24.037l34.364-20.793c19.579-11.847 31.742-33.423 31.742-56.308 0-36.289-29.523-65.813-65.813-65.813zm-404.091 105.01c-13.629-8.247-22.096-23.266-22.096-39.197 0-25.261 20.552-45.813 45.813-45.813h.293v99.538zm383.798 61.941c0 9.542-7.763 17.305-17.305 17.305h-305.178c-9.542 0-17.305-7.763-17.305-17.305v-200.801c0-8.493 6.081-15.672 14.458-17.069l86.592-14.44c22.84-3.809 45.842-5.714 68.843-5.714s46.003 1.905 68.843 5.714l86.592 14.44c8.377 1.397 14.458 8.576 14.458 17.069v200.801zm44.01-61.941-24.011 14.528v-99.538h.293c25.261 0 45.813 20.552 45.813 45.813.001 15.931-8.466 30.95-22.095 39.197z"/><path d="m394.049 176.666-49.404-10.907c-57.992-12.803-119.299-12.803-177.291 0l-49.404 10.907c-4.582 1.011-7.844 5.072-7.844 9.765v163.234c0 5.523 4.477 10 10 10h90.688c5.523 0 10-4.477 10-10s-4.477-10-10-10h-80.688v-145.201l41.56-9.175c55.172-12.181 113.496-12.181 168.668 0l41.56 9.175v145.201h-80.687c-5.523 0-10 4.477-10 10s4.477 10 10 10h90.687c5.523 0 10-4.477 10-10v-163.234c0-4.692-3.263-8.754-7.845-9.765z"/><path d="m261.73 341.346c-3.417-2.277-7.977-2.188-11.329.168-3.382 2.376-4.945 6.754-3.871 10.738 1.076 3.994 4.587 6.969 8.706 7.368 4.255.412 8.427-2.064 10.119-5.983 1.897-4.393.339-9.622-3.625-12.291z"/><path d="m166.329 247.732 27.435-3.022c41.296-4.55 83.174-4.55 124.472 0l27.435 3.022c.373.041.742.061 1.107.061 5.032 0 9.364-3.789 9.928-8.906.604-5.49-3.355-10.43-8.845-11.035l-27.435-3.022c-42.75-4.71-86.103-4.71-128.853 0l-27.435 3.022c-5.489.605-9.449 5.545-8.845 11.035.605 5.49 5.539 9.451 11.036 8.845z"/><path d="m155.294 299.398c.604 5.489 5.538 9.449 11.035 8.845l27.435-3.022c41.296-4.55 83.174-4.55 124.472 0l27.435 3.022c.373.041.742.061 1.107.061 5.032 0 9.364-3.789 9.928-8.906.604-5.49-3.355-10.43-8.845-11.035l-27.435-3.022c-42.75-4.71-86.103-4.71-128.853 0l-27.435 3.022c-5.489.605-9.449 5.545-8.844 11.035z"/></g></g></svg>