<?xml version="1.0"?>
<svg xmlns="http://www.w3.org/2000/svg" id="Layer_1" enable-background="new 0 0 512 512" height="512px" viewBox="0 0 512 512" width="512px" class=""><g><g><g clip-rule="evenodd" fill-rule="evenodd"><g><path d="m221.55 50h129.999 40.001 20.001v-40h-190.002c-11.02 0-21.025 4.495-28.265 11.735s-11.735 17.245-11.735 28.265v19.999h40v-19.999z" fill="#fff" data-original="#FFF" class=""/><path d="m221.55 140.396c0-13.217-15.299-30.395-20-30.395s-20 17.178-20 30.395c0 10.944 9.038 20.313 20 20.271 10.962.042 20-9.327 20-20.271z" fill="#99ebfa" data-original="#99EBFA"/><path d="m341.55 93.375c-11 0-20 9-20 20v20h99.999v-20c0-10.999-9-20-20-20h-9.999-40.001z" fill="#ffc144" data-original="#FFC144" class=""/><path d="m351.549 50v43.375h40.001v-43.375c-13.334 0-26.667 0-40.001 0z" fill="#fff" data-original="#FFF" class=""/><path d="m421.549 133.375c-29.788 0-70.211 0-99.999 0-3.491 0-6.836 0-10 0 0 15.512-17.54 20.001-24.603 20.001-3.428 5.892-5.397 12.727-5.397 19.999v54.31h179.999c0-18.103 0-36.207 0-54.31 0-7.272-1.968-14.107-5.396-19.999-7.063 0-24.603-4.489-24.603-20.001-3.165 0-6.51 0-10.001 0z" fill="#fff" data-original="#FFF" class=""/><path d="m461.549 227.684h-179.999v180.006h179.999c0-60.002 0-120.004 0-180.006zm-109.999 40.003h40v30h30v40h-30v30h-40v-30h-30v-40h30z" fill="#ffc144" data-original="#FFC144" class=""/><g fill="#fff"><path d="m391.549 267.687h-39.999v30.001h-30v39.999h30v30.001h39.999v-30.001h30.001v-39.999h-30.001z" data-original="#FFF" class=""/><path d="m461.549 407.691h-179.999v74.309c0 11 9 20 20 20h140c11 0 20-9 20-20-.001-24.77-.001-49.54-.001-74.309z" data-original="#FFF" class=""/></g></g><path d="m81.713 323.215c-2.204-.657-4.539-1.012-6.956-1.012-13.424 0-24.307 10.882-24.307 24.306 0 7.035 2.989 13.372 7.766 17.81 4.338 4.031 10.152 6.496 16.541 6.496 9.045 0 16.936-4.941 21.121-12.271 4.43 2.512 9.55 3.947 15.006 3.947 13.783 0 25.429-9.153 29.19-21.713.83-2.773 1.277-5.711 1.277-8.754 0-16.826-13.64-30.466-30.466-30.466-13.763.001-25.392 9.127-29.172 21.657z" fill="#cff5fd" data-original="#CFF5FD"/><circle cx="185.355" cy="272.417" fill="#cff5fd" r="22.5" data-original="#CFF5FD"/><path d="m263.348 337.687c-29.364 0-52.436 6.32-81.801 6.32-14.896 0-28.173-1.626-41.472-3.228-3.761 12.559-15.407 21.713-29.19 21.713-5.456 0-10.576-1.435-15.006-3.947-4.186 7.33-12.076 12.271-21.121 12.271-6.389 0-12.203-2.465-16.54-6.497-4.808 16.224-2.519 37.275-2.519 55.526 0 35.715-8.776 82.156 44.047 82.156 29.365 0 52.437-6.32 81.801-6.32 29.365 0 52.437 6.32 81.801 6.32 10.57 0 18.674-1.859 24.875-5.121 24.787-13.036 19.172-48.467 19.172-77.036 0-3.946.107-8.022.227-12.153.815-28.208 2.2-58.927-26.071-67.603-5.061-1.554-11.071-2.401-18.203-2.401zm-138.679 56.878h113.755c6.952 0 12.639 5.688 12.639 12.639v25.279c0 6.952-5.687 12.639-12.639 12.639h-113.755c-6.952 0-12.639-5.688-12.639-12.639v-25.279c0-6.952 5.687-12.639 12.639-12.639z" fill="#8481e2" data-original="#8481E2" class="" style="fill:#90B6E1" data-old_color="#8481e2"/><path d="m238.424 394.565h-113.755c-6.952 0-12.639 5.688-12.639 12.639v25.279c0 6.952 5.687 12.639 12.639 12.639h113.755c6.952 0 12.639-5.688 12.639-12.639v-25.279c0-6.952-5.687-12.639-12.639-12.639z" fill="#9d9ae8" data-original="#9D9AE8" class="" style="fill:#AED559" data-old_color="#9d9ae8"/></g><g><path d="m201.625 170.667c7.823 0 15.247-3.105 20.915-8.751 5.726-5.704 9.01-13.548 9.01-21.52 0-10.752-6.395-20.975-10.207-26.112-4.834-6.516-12.193-14.282-19.793-14.282-7.601 0-14.959 7.767-19.793 14.282-3.812 5.137-10.207 15.36-10.207 26.112 0 7.972 3.284 15.816 9.01 21.52 5.668 5.646 13.091 8.751 20.839 8.751zm-10.075-30.271c0-5.81 5.825-14.403 10-18.657 4.175 4.253 10 12.847 10 18.657 0 2.693-1.139 5.373-3.125 7.351-1.892 1.884-4.306 2.92-6.877 2.92-.012 0-.024 0-.036 0s-.023 0-.035 0c-2.496 0-4.911-1.036-6.802-2.92-1.986-1.979-3.125-4.658-3.125-7.351z" data-original="#000000" class="active-path" style="fill:#575B7A" data-old_color="#000000"/><path d="m464.796 148.347c-1.791-3.078-5.083-4.971-8.644-4.971-.146 0-14.603-1.061-14.603-10 0-5.523-4.477-10-10-10v-9.999c0-16.542-13.457-30-29.999-30v-23.376-.001h10.001c5.523 0 10-4.477 10-10v-40c0-5.523-4.477-10-10-10h-190.002c-13.33 0-25.879 5.208-35.337 14.664-9.455 9.457-14.663 22.006-14.663 35.336v20c0 5.523 4.477 10 10 10h40c5.523 0 10-4.477 10-10v-10h109.999v.001 23.374c-16.542 0-29.999 13.458-29.999 30v9.999c-5.523 0-10 4.477-10 10 0 8.94-14.457 10-14.603 10-3.561 0-6.853 1.894-8.644 4.971-4.418 7.594-6.753 16.249-6.753 25.028v154.702c-2.631-.25-5.357-.389-8.202-.389-15.283 0-28.914 1.643-42.097 3.232-13.177 1.588-25.623 3.088-39.705 3.088-10.675 0-20.393-.861-30.196-1.967 0-.005 0-.01 0-.015 0-22.313-18.153-40.466-40.466-40.466-14.713 0-28.203 8.171-35.273 20.654-.285-.007-.569-.01-.854-.01-18.917 0-34.307 15.39-34.307 34.306 0 7.673 2.532 14.765 6.805 20.485-2.601 12.472-2.208 26.221-1.82 39.57.135 4.643.263 9.028.263 13.279 0 4.253-.128 8.642-.264 13.287-.666 22.793-1.419 48.627 14.265 64.776 9.085 9.353 22.558 14.095 40.048 14.095 15.283 0 28.914-1.643 42.097-3.232 13.176-1.588 25.622-3.088 39.704-3.088s26.528 1.5 39.705 3.088c13.183 1.589 26.814 3.232 42.097 3.232 8.99 0 16.909-1.262 23.726-3.75 4.409 2.44 9.382 3.75 14.476 3.75h140c16.542 0 30-13.458 30-30v-308.625c-.002-8.78-2.337-17.435-6.755-25.028zm-243.246-108.347c-5.523 0-10 4.477-10 10v10h-20v-10c0-7.988 3.127-15.515 8.806-21.193 5.68-5.679 13.207-8.807 21.194-8.807h180.001v20zm160 20s0 .001 0 0v23.375h-20.001v-23.374-.001zm-50 63.375v-9.999c0-5.514 4.486-10 10-10h60c5.514 0 10 4.486 10 10v9.999zm-40 114.309h35.003c5.523 0 10-4.477 10-10s-4.477-10-10-10h-35.003v-44.31c0-3.628.667-7.222 1.952-10.595 10.497-1.859 21.943-8.113 26.264-19.405h103.568c4.321 11.292 15.767 17.545 26.264 19.404 1.285 3.374 1.952 6.966 1.952 10.595v44.31h-34.996c-5.523 0-10 4.477-10 10s4.477 10 10 10h34.996v160.007h-133.667c.365-20.375-.81-41.826-14.489-55.91-3.354-3.453-7.311-6.273-11.844-8.463zm-216.793 94.519c1.395 0 2.774.2 4.099.595 5.281 1.575 10.84-1.419 12.432-6.695 2.583-8.563 10.641-14.544 19.597-14.544 11.285 0 20.466 9.181 20.466 20.466s-9.181 20.467-20.466 20.467c-3.537 0-7.02-.915-10.073-2.646-4.795-2.718-10.884-1.047-13.617 3.74-2.547 4.46-7.313 7.23-12.438 7.23-7.889 0-14.307-6.418-14.307-14.307.001-7.888 6.419-14.306 14.307-14.306zm148.887 156.709c-13.183-1.589-26.815-3.232-42.098-3.232s-28.914 1.643-42.097 3.232c-13.176 1.588-25.622 3.088-39.703 3.088-12.046 0-20.452-2.626-25.699-8.028-9.793-10.083-9.197-30.507-8.62-50.258.134-4.584.272-9.326.272-13.871 0-4.542-.138-9.28-.271-13.862-.261-8.965-.522-18.127.203-26.408 2.908.804 5.967 1.242 9.127 1.242 9.209 0 17.933-3.727 24.292-10.091 3.819 1.166 7.812 1.768 11.835 1.768 15.221 0 28.501-8.451 35.408-20.904 11.065 1.289 22.577 2.42 35.253 2.42 15.283 0 28.915-1.643 42.098-3.232 13.176-1.588 25.622-3.088 39.704-3.088 12.046 0 20.452 2.626 25.699 8.028 9.793 10.083 9.197 30.506 8.62 50.257-.134 4.585-.272 9.326-.272 13.871s.138 9.286.272 13.871c.577 19.751 1.173 40.175-8.62 50.258-5.247 5.401-13.653 8.027-25.699 8.027-14.082 0-26.528-1.5-39.704-3.088zm217.905 3.088h-133.404c10.752-16.117 10.103-38.683 9.514-58.87-.136-4.646-.264-9.034-.264-13.287 0-.712.008-1.433.015-2.153h134.14v64.31c-.001 5.514-4.487 10-10.001 10z" data-original="#000000" class="active-path" style="fill:#575B7A" data-old_color="#000000"/><path d="m321.55 347.688h20v20c0 5.523 4.477 10 10 10h40c5.523 0 10-4.477 10-10v-20h20c5.523 0 10-4.477 10-10v-40c0-5.523-4.477-10-10-10h-20v-20c0-5.523-4.477-10-10-10h-40c-5.523 0-10 4.477-10 10v20h-20c-5.523 0-10 4.477-10 10v40c0 5.522 4.477 10 10 10zm10-40h20c5.523 0 10-4.477 10-10v-20h20v20c0 5.523 4.477 10 10 10h20v20h-20c-5.523 0-10 4.477-10 10v20h-20v-20c0-5.523-4.477-10-10-10h-20z" data-original="#000000" class="active-path" style="fill:#575B7A" data-old_color="#000000"/><path d="m238.424 384.564h-113.755c-12.483 0-22.639 10.156-22.639 22.64v25.279c0 12.483 10.156 22.639 22.639 22.639h113.755c12.483 0 22.639-10.156 22.639-22.639v-25.279c0-12.483-10.156-22.64-22.639-22.64zm2.639 47.919c0 1.431-1.208 2.639-2.639 2.639h-113.755c-1.431 0-2.639-1.208-2.639-2.639v-25.279c0-1.431 1.208-2.64 2.639-2.64h113.755c1.431 0 2.639 1.209 2.639 2.64z" data-original="#000000" class="active-path" style="fill:#575B7A" data-old_color="#000000"/><path d="m185.355 304.917c17.92 0 32.5-14.58 32.5-32.5s-14.58-32.5-32.5-32.5-32.5 14.58-32.5 32.5 14.58 32.5 32.5 32.5zm0-45c6.893 0 12.5 5.607 12.5 12.5s-5.607 12.5-12.5 12.5-12.5-5.607-12.5-12.5 5.608-12.5 12.5-12.5z" data-original="#000000" class="active-path" style="fill:#575B7A" data-old_color="#000000"/><path d="m371.557 237.684c5.523 0 10-4.477 10-10s-4.477-10-10-10h-.007c-5.523 0-9.996 4.477-9.996 10s4.48 10 10.003 10z" data-original="#000000" class="active-path" style="fill:#575B7A" data-old_color="#000000"/></g></g></g> </svg>
