<?xml version="1.0"?>
<svg xmlns="http://www.w3.org/2000/svg" id="Capa_1" enable-background="new 0 0 512 512" height="512px" viewBox="0 0 512 512" width="512px" class="hovered-paths"><g><g><g><path d="m108.53 299.368-45.379-104.659c-1.704-3.929.1-8.496 4.03-10.199 3.93-1.705 8.496.1 10.199 4.03l45.379 104.659c1.704 3.929 4.223 20.019.294 21.722-1.005.437-13.256-12.627-14.523-15.553z" fill="#818b95" data-original="#818B95" class="hovered-path active-path" style="fill:#818B95" data-old_color="#818b95"/></g><g><path d="m389.038 319.316c-3.932-1.696-1.06-22.171.636-26.103l45.174-104.718c1.696-3.933 6.26-5.745 10.192-4.049s5.745 6.259 4.049 10.192l-45.174 104.718c-1.265 2.931-13.876 20.392-14.877 19.96z" fill="#818b95" data-original="#818B95" class="hovered-path active-path" style="fill:#818B95" data-old_color="#818b95"/></g><g><path d="m200.123 317.912c-3.226 0-6.238-2.029-7.339-5.253l-40.297-118.093c-1.383-4.053.782-8.46 4.834-9.843 4.053-1.386 8.46.781 9.844 4.834l40.297 118.094c1.383 4.053-.782 8.46-4.834 9.843-.83.283-1.675.418-2.505.418z" fill="#818b95" data-original="#818B95" class="hovered-path active-path" style="fill:#818B95" data-old_color="#818b95"/></g><g><path d="m256.219 317.91c-4.279 0-7.751-3.466-7.755-7.746l-.117-118.093c-.004-4.283 3.464-7.759 7.747-7.763h.008c4.279 0 7.751 3.466 7.755 7.746l.117 118.093c.004 4.283-3.464 7.759-7.747 7.763-.003 0-.005 0-.008 0z" fill="#818b95" data-original="#818B95" class="hovered-path active-path" style="fill:#818B95" data-old_color="#818b95"/></g><g><path d="m312.082 317.912c-.826 0-1.666-.132-2.491-.413-4.056-1.374-6.229-5.778-4.854-9.834l40.035-118.093c1.376-4.055 5.781-6.233 9.834-4.854 4.056 1.374 6.229 5.778 4.854 9.834l-40.035 118.093c-1.095 3.23-4.111 5.267-7.343 5.267z" fill="#818b95" data-original="#818B95" class="hovered-path active-path" style="fill:#818B95" data-old_color="#818b95"/></g><g><path clip-rule="evenodd" d="m151.065 201.728c30.545-81.591 67.601-146.507 104.92-201.728-100.803.058-201.547 64.42-204 195.829-.117 6.337-.584 6.366 4.555 3.884 30.253-14.513 60.067-13.141 89.59-.029 3.095 1.372 3.826 2.278 4.935 2.044z" fill="#ffe07d" fill-rule="evenodd" data-original="#FFE07D" class="" style="fill:#FFE07D" data-old_color="#ffe07d"/></g><g><path clip-rule="evenodd" d="m255.869 201.786 13.812-95.724-13.696-106.062c-62.987 45.935-99.752 110.968-104.92 201.728.701-.146 1.548-.759 3.212-1.986 38.955-28.793 79.953-10.746 99.051.642 1.46.877 2.044 1.344 2.541 1.402z" fill="#ccf49f" fill-rule="evenodd" data-original="#CCF49F" class="" style="fill:#AED559" data-old_color="#ccf49f"/></g><g><path clip-rule="evenodd" d="m360.935 201.728c9.578-98.761-30.194-162.13-104.95-201.728l-.117 201.786h.263c.496-.058 1.08-.526 2.54-1.402 19.068-11.389 60.096-29.436 99.051-.642 1.665 1.227 2.512 1.84 3.213 1.986z" fill="#ffe07d" fill-rule="evenodd" data-original="#FFE07D" class="" style="fill:#FFE07D" data-old_color="#ffe07d"/></g><g><path clip-rule="evenodd" d="m460.015 195.829c-2.453-131.409-103.198-195.771-204.03-195.829 63.016 45.935 99.752 110.968 104.949 201.728 1.11.234 1.84-.672 4.935-2.044 29.493-13.112 59.308-14.484 89.59.029 5.14 2.482 4.673 2.453 4.556-3.884z" fill="#ccf49f" fill-rule="evenodd" data-original="#CCF49F" class="" style="fill:#AED559" data-old_color="#ccf49f"/></g><g><path clip-rule="evenodd" d="m460.015 195.829c-2.453-131.409-103.198-195.771-204.03-195.829 85.823 29.961 151.642 96.279 161.016 189.492 12.732.73 25.551 4.03 38.458 10.221 5.14 2.482 4.673 2.453 4.556-3.884z" fill="#b3e59e" fill-rule="evenodd" data-original="#B3E59E" class=""/></g><g><path clip-rule="evenodd" d="m114.826 501.896h282.786v-191.741h-85.531-55.862-56.096-85.297z" fill="#e6e6e6" fill-rule="evenodd" data-original="#E6E6E6" class="" style="fill:#FFFFFF" data-old_color="#e6e6e6"/></g><g><path clip-rule="evenodd" d="m125.134 501.896v-191.741-4.38c0-5.198-4.263-9.491-9.49-9.491h-17.316c-5.227 0-9.49 4.293-9.49 9.491v86.38 30.399 79.955c0 5.227 4.263 9.491 9.49 9.491h17.316c5.227 0 9.49-4.263 9.49-9.491z" fill="#f1d0a5" fill-rule="evenodd" data-original="#F1D0A5" class="" style="fill:#3FB6F8" data-old_color="#f1d0a5"/></g><g><path clip-rule="evenodd" d="m293.305 420.101c6.103 0 11.096-4.994 11.096-11.097v-16.207c0-6.103-4.993-11.097-11.096-11.097h-17.9v-17.872c0-6.103-4.993-11.126-11.096-11.126h-16.179c-6.103 0-11.096 5.023-11.096 11.126v17.872h-17.9c-6.103 0-11.096 4.994-11.096 11.097v16.207c0 6.103 4.993 11.097 11.096 11.097h17.9v17.872c0 6.103 4.993 11.126 11.096 11.126h16.178c6.103 0 11.096-5.023 11.096-11.126v-17.872z" fill="#ff8086" fill-rule="evenodd" data-original="#FF8086" class="" style="fill:#FF415B" data-old_color="#ff8086"/></g><g><path clip-rule="evenodd" d="m423.601 422.554v-30.399-86.38c0-5.198-4.263-9.491-9.49-9.491h-17.316c-5.227 0-9.49 4.293-9.49 9.491v4.38 191.741.613c0 5.227 4.263 9.491 9.49 9.491h17.316c5.227 0 9.49-4.263 9.49-9.491z" fill="#f1d0a5" fill-rule="evenodd" data-original="#F1D0A5" class="" style="fill:#3FB6F8" data-old_color="#f1d0a5"/></g><g><path clip-rule="evenodd" d="m423.601 392.155v-86.38c0-5.198-4.263-9.491-9.49-9.491h-15.711c5.227 0 9.49 4.293 9.49 9.491v86.38 30.399 79.955c0 5.227-4.263 9.491-9.49 9.491h15.71c5.227 0 9.49-4.263 9.49-9.491v-79.955-30.399z" fill="#e5c093" fill-rule="evenodd" data-original="#E5C093" class="" style="fill:#3FB6F8" data-old_color="#e5c093"/></g><g><path clip-rule="evenodd" d="m125.134 501.896v-191.741-4.38c0-5.198-4.263-9.491-9.49-9.491h-15.71c5.227 0 9.49 4.293 9.49 9.491v4.38 191.741.613c0 5.227-4.263 9.491-9.49 9.491h15.71c5.227 0 9.49-4.263 9.49-9.491z" fill="#e5c093" fill-rule="evenodd" data-original="#E5C093" class="" style="fill:#3FB6F8" data-old_color="#e5c093"/></g><g><path clip-rule="evenodd" d="m364.585 501.896h22.719v-191.741h-6.863-4.497-4.497-6.862z" fill="#dad8db" fill-rule="evenodd" data-original="#DAD8DB" class="" style="fill:#FFFFFF" data-old_color="#dad8db"/></g><g><path d="m357.022 350.295h-11.301c-4.283 0-7.755-3.471-7.755-7.755 0-4.283 3.472-7.755 7.755-7.755h11.301c4.283 0 7.755 3.471 7.755 7.755-.001 4.284-3.472 7.755-7.755 7.755z" fill="#818b95" data-original="#818B95" class="hovered-path active-path" style="fill:#818B95" data-old_color="#818b95"/></g><g><path d="m166.717 477.266h-11.301c-4.283 0-7.755-3.471-7.755-7.755s3.472-7.755 7.755-7.755h11.301c4.283 0 7.755 3.471 7.755 7.755s-3.472 7.755-7.755 7.755z" fill="#818b95" data-original="#818B95" class="hovered-path active-path" style="fill:#818B95" data-old_color="#818b95"/></g><g><path d="m357.022 477.266h-11.301c-4.283 0-7.755-3.471-7.755-7.755s3.472-7.755 7.755-7.755h11.301c4.283 0 7.755 3.471 7.755 7.755s-3.472 7.755-7.755 7.755z" fill="#818b95" data-original="#818B95" class="hovered-path active-path" style="fill:#818B95" data-old_color="#818b95"/></g><g><path d="m166.717 350.295h-11.301c-4.283 0-7.755-3.471-7.755-7.755 0-4.283 3.472-7.755 7.755-7.755h11.301c4.283 0 7.755 3.471 7.755 7.755s-3.472 7.755-7.755 7.755z" fill="#818b95" data-original="#818B95" class="hovered-path active-path" style="fill:#818B95" data-old_color="#818b95"/></g></g></g> </svg>
