<svg height="512pt" viewBox="0 0 512 512" width="512pt" xmlns="http://www.w3.org/2000/svg"><path d="m338.414062 271h-47.386718v-45.390625c0-3.414063 2.765625-6.179687 6.179687-6.179687h35.027344c3.414063 0 6.179687 2.765624 6.179687 6.179687zm0 0" fill="#d5dfe8"/><path d="m470.792969 512h-41.207031c-5.691407 0-10.300782-4.613281-10.300782-10.300781v-71.035157h61.808594v71.035157c0 5.6875-4.613281 10.300781-10.300781 10.300781zm0 0" fill="#d5dfe8"/><path d="m128.964844 512h-87.269532c-7.195312 0-13.027343-5.832031-13.027343-13.027344v-68.304687h113.320312v68.304687c0 7.195313-5.832031 13.027344-13.023437 13.027344zm0 0" fill="#685c79"/><path d="m111.082031 430.667969v68.304687c0 7.195313-5.832031 13.027344-13.023437 13.027344h30.902344c7.195312 0 13.027343-5.832031 13.027343-13.027344v-68.304687zm0 0" fill="#594f69"/><path d="m303.507812 148.859375h-83.5625v-131.863281h83.5625c2.210938 0 4 1.792968 4 4v123.863281c0 2.210937-1.789062 4-4 4zm0 0" fill="#d5dfe8"/><path d="m303.507812 148.859375h-26.902343v-131.863281h26.902343c2.210938 0 4 1.792968 4 4v123.863281c0 2.210937-1.789062 4-4 4zm0 0" fill="#cad2db"/><g fill="#bfc7d1"><path d="m219.941406 54.371094h62.84375c4.144532 0 7.5-3.355469 7.5-7.5 0-4.140625-3.355468-7.5-7.5-7.5h-62.84375c-4.140625 0-7.5 3.359375-7.5 7.5 0 4.144531 3.359375 7.5 7.5 7.5zm0 0"/><path d="m282.785156 75.429688h-62.84375c-4.140625 0-7.5 3.359374-7.5 7.5 0 4.140624 3.359375 7.5 7.5 7.5h62.84375c4.144532 0 7.5-3.359376 7.5-7.5 0-4.140626-3.355468-7.5-7.5-7.5zm0 0"/><path d="m282.785156 111.484375h-62.84375c-4.140625 0-7.5 3.359375-7.5 7.5 0 4.144531 3.359375 7.5 7.5 7.5h62.84375c4.144532 0 7.5-3.355469 7.5-7.5 0-4.140625-3.355468-7.5-7.5-7.5zm0 0"/></g><path d="m144.636719 460.492188h-118.265625c-14.5625 0-26.371094-11.808594-26.371094-26.375v-392.910157h171.011719v392.910157c0 14.566406-11.808594 26.375-26.375 26.375zm0 0" fill="#ffd659"/><path d="m0 358.019531h171.011719v30.90625h-171.011719zm0 0" fill="#ff2c5c"/><path d="m171.011719 41.207031h-171.011719v-35.828125c0-2.972656 2.40625-5.378906 5.378906-5.378906h160.253906c2.96875 0 5.378907 2.40625 5.378907 5.378906zm0 0" fill="#b5fcff"/><path d="m140.105469 41.207031v392.910157c0 14.566406-11.808594 26.371093-26.375 26.371093h30.90625c14.566406 0 26.375-11.804687 26.375-26.371093v-392.910157zm0 0" fill="#ffbd54"/><path d="m140.105469 358.019531h30.90625v30.90625h-30.90625zm0 0" fill="#e62753"/><path d="m165.632812 0h-30.90625c2.972657 0 5.378907 2.40625 5.378907 5.378906v35.828125h30.90625v-35.828125c0-2.972656-2.410157-5.378906-5.378907-5.378906zm0 0" fill="#71f6fc"/><path d="m489.335938 460.492188h-78.292969c-12.519531 0-22.664063-10.148438-22.664063-22.664063v-396.621094h123.621094v396.621094c0 12.515625-10.148438 22.664063-22.664062 22.664063zm0 0" fill="#ff2c5c"/><path d="m512 41.207031h-123.621094v-37.085937c0-2.277344 1.84375-4.121094 4.121094-4.121094h115.378906c2.277344 0 4.121094 1.84375 4.121094 4.121094zm0 0" fill="#ffd659"/><path d="m481.09375 41.207031v396.621094c0 12.515625-10.144531 22.664063-22.664062 22.664063h30.90625c12.515624 0 22.664062-10.148438 22.664062-22.664063v-396.621094zm0 0" fill="#e62753"/><path d="m507.878906 0h-30.90625c2.277344 0 4.121094 1.84375 4.121094 4.121094v37.085937h30.90625v-37.085937c0-2.277344-1.84375-4.121094-4.121094-4.121094zm0 0" fill="#ffbd54"/><path d="m219.945312 512c-8.535156 0-15.453124-6.917969-15.453124-15.453125v-481.09375c0-8.535156 6.917968-15.453125 15.453124-15.453125 8.53125 0 15.453126 6.917969 15.453126 15.453125v481.09375c-.003907 8.535156-6.921876 15.453125-15.453126 15.453125zm0 0" fill="#685c79"/><path d="m350.777344 512h-72.113282c-3.414062 0-6.179687-2.765625-6.179687-6.179688v-247.246093c0-3.414063 2.765625-6.179688 6.179687-6.179688h72.113282c3.414062 0 6.179687 2.765625 6.179687 6.179688v247.242187c0 3.417969-2.765625 6.183594-6.179687 6.183594zm0 0" fill="#b5fcff"/><path d="m272.484375 298.925781h84.472656v30.902344h-84.472656zm0 0" fill="#ff2c5c"/><path d="m350.777344 252.394531h-30.90625c3.414062 0 6.183594 2.765625 6.183594 6.179688v247.242187c0 3.414063-2.769532 6.183594-6.183594 6.183594h30.90625c3.414062 0 6.179687-2.769531 6.179687-6.183594v-247.242187c0-3.414063-2.765625-6.179688-6.179687-6.179688zm0 0" fill="#71f6fc"/><path d="m326.050781 298.925781h30.90625v30.902344h-30.90625zm0 0" fill="#e62753"/></svg>